<svg data-v-423bf9ae="" xmlns="http://www.w3.org/2000/svg" viewBox="0 0 411.1549632168251 60" class="font"><!----><!----><!----><g data-v-423bf9ae="" id="30c868b2-1c7e-409b-8a81-d1c0d910784c" fill="black" transform="matrix(5.633802890777588,0,0,5.633802890777588,-7.380282402038574,-32.05633544921875)"><path d="M4.38 10.28L11.16 5.69L13.13 5.69L5.69 10.83L13.34 16.19L11.38 16.19L4.38 11.38L2.63 11.38L2.63 16.19L1.31 16.19L1.31 5.69L2.63 5.69L2.63 10.28L4.38 10.28ZM16.41 6.78L16.41 16.19L15.09 16.19L15.09 5.69L17.40 5.69L27.02 14.88L27.02 5.69L28.33 5.69L28.33 16.19L26.58 16.19L16.41 6.78ZM33.58 5.69L45.40 5.69L45.40 6.78L40.15 6.78L40.15 16.19L38.83 16.19L38.83 6.78L33.58 6.78L33.58 5.69ZM48.24 16.34L48.24 16.34L48.24 16.34Q46.93 16.34 46.01 16.16L46.01 16.16L46.01 16.16Q45.10 15.98 44.52 15.53L44.52 15.53L44.52 15.53Q43.95 15.09 43.69 14.34L43.69 14.34L43.69 14.34Q43.43 13.60 43.43 12.47L43.43 12.47L43.43 12.47Q43.43 11.18 43.69 10.33L43.69 10.33L43.69 10.33Q43.95 9.49 44.52 8.99L44.52 8.99L44.52 8.99Q45.10 8.49 46.01 8.29L46.01 8.29L46.01 8.29Q46.93 8.09 48.24 8.09L48.24 8.09L48.24 8.09Q49.18 8.09 49.86 8.23L49.86 8.23L49.86 8.23Q50.55 8.37 51.04 8.63L51.04 8.63L51.04 8.63Q51.53 8.89 51.83 9.26L51.83 9.26L51.83 9.26Q52.14 9.63 52.31 10.03L52.31 10.03L52.31 10.03Q52.49 10.44 52.55 10.99L52.55 10.99L52.55 10.99Q52.62 11.53 52.62 12.14L52.62 12.14L52.51 12.58L44.74 12.58L44.74 12.58Q44.74 13.48 44.92 14.06L44.92 14.06L44.92 14.06Q45.10 14.64 45.51 14.90L45.51 14.90L45.51 14.90Q45.92 15.17 46.59 15.24L46.59 15.24L46.59 15.24Q47.26 15.31 48.24 15.31L48.24 15.31L48.24 15.31Q49.14 15.31 49.73 15.26L49.73 15.26L49.73 15.26Q50.33 15.21 50.67 15.07L50.67 15.07L50.67 15.07Q51.02 14.92 51.16 14.67L51.16 14.67L51.16 14.67Q51.30 14.41 51.30 14L51.30 14L52.62 14L52.62 14Q52.62 14.64 52.39 15.08L52.39 15.08L52.39 15.08Q52.17 15.53 51.66 15.81L51.66 15.81L51.66 15.81Q51.15 16.08 50.31 16.21L50.31 16.21L50.31 16.21Q49.47 16.34 48.24 16.34ZM48.24 9.19L48.24 9.19L48.24 9.19Q47.58 9.19 47.07 9.21L47.07 9.21L47.07 9.21Q46.55 9.24 46.17 9.33L46.17 9.33L46.17 9.33Q45.78 9.43 45.51 9.60L45.51 9.60L45.51 9.60Q45.23 9.78 45.07 10.01L45.07 10.01L45.07 10.01Q44.90 10.25 44.82 10.67L44.82 10.67L44.82 10.67Q44.74 11.10 44.74 11.70L44.74 11.70L51.30 11.70L51.30 11.70Q51.30 10.90 51.13 10.45L51.13 10.45L51.13 10.45Q50.96 9.99 50.59 9.70L50.59 9.70L50.59 9.70Q50.22 9.41 49.64 9.30L49.64 9.30L49.64 9.30Q49.06 9.19 48.24 9.19ZM54.15 12.26L54.15 12.26L54.15 12.26Q54.15 11.44 54.23 10.81L54.23 10.81L54.23 10.81Q54.31 10.19 54.52 9.72L54.52 9.72L54.52 9.72Q54.73 9.26 55.08 8.94L55.08 8.94L55.08 8.94Q55.43 8.63 55.97 8.44L55.97 8.44L55.97 8.44Q56.51 8.25 57.24 8.17L57.24 8.17L57.24 8.17Q57.98 8.09 58.97 8.09L58.97 8.09L58.97 8.09Q60.28 8.09 61.13 8.25L61.13 8.25L61.13 8.25Q61.97 8.41 62.47 8.74L62.47 8.74L62.47 8.74Q62.96 9.07 63.15 9.58L63.15 9.58L63.15 9.58Q63.34 10.09 63.34 10.79L63.34 10.79L62.03 10.79L62.03 10.79Q62.03 10.54 62.02 10.32L62.02 10.32L62.02 10.32Q62.00 10.10 61.92 9.93L61.92 9.93L61.92 9.93Q61.83 9.75 61.65 9.61L61.65 9.61L61.65 9.61Q61.46 9.47 61.12 9.37L61.12 9.37L61.12 9.37Q60.78 9.28 60.26 9.23L60.26 9.23L60.26 9.23Q59.73 9.18 58.97 9.18L58.97 9.18L58.97 9.18Q58.09 9.18 57.49 9.24L57.49 9.24L57.49 9.24Q56.90 9.30 56.51 9.44L56.51 9.44L56.51 9.44Q56.12 9.58 55.90 9.82L55.90 9.82L55.90 9.82Q55.69 10.06 55.60 10.40L55.60 10.40L55.60 10.40Q55.50 10.74 55.48 11.20L55.48 11.20L55.48 11.20Q55.47 11.66 55.47 12.26L55.47 12.26L55.47 12.26Q55.47 12.85 55.48 13.31L55.48 13.31L55.48 13.31Q55.50 13.76 55.60 14.10L55.60 14.10L55.60 14.10Q55.69 14.44 55.90 14.67L55.90 14.67L55.90 14.67Q56.12 14.90 56.51 15.05L56.51 15.05L56.51 15.05Q56.90 15.19 57.49 15.25L57.49 15.25L57.49 15.25Q58.09 15.31 58.97 15.31L58.97 15.31L58.97 15.31Q59.73 15.31 60.26 15.26L60.26 15.26L60.26 15.26Q60.78 15.20 61.12 15.10L61.12 15.10L61.12 15.10Q61.46 15.00 61.65 14.85L61.65 14.85L61.65 14.85Q61.83 14.70 61.92 14.50L61.92 14.50L61.92 14.50Q62.00 14.31 62.02 14.07L62.02 14.07L62.02 14.07Q62.03 13.84 62.03 13.56L62.03 13.56L63.34 13.56L63.34 13.56Q63.34 14.28 63.15 14.81L63.15 14.81L63.15 14.81Q62.96 15.33 62.47 15.67L62.47 15.67L62.47 15.67Q61.97 16.01 61.13 16.17L61.13 16.17L61.13 16.17Q60.28 16.34 58.97 16.34L58.97 16.34L58.97 16.34Q57.98 16.34 57.24 16.26L57.24 16.26L57.24 16.26Q56.51 16.17 55.97 15.99L55.97 15.99L55.97 15.99Q55.43 15.80 55.08 15.49L55.08 15.49L55.08 15.49Q54.73 15.18 54.52 14.73L54.52 14.73L54.52 14.73Q54.31 14.28 54.23 13.67L54.23 13.67L54.23 13.67Q54.15 13.06 54.15 12.26ZM74.28 16.19L72.97 16.19L72.97 11.74L72.97 11.74Q72.97 11.03 72.86 10.54L72.86 10.54L72.86 10.54Q72.75 10.06 72.42 9.75L72.42 9.75L72.42 9.75Q72.09 9.45 71.49 9.32L71.49 9.32L71.49 9.32Q70.89 9.19 69.90 9.19L69.90 9.19L69.90 9.19Q68.84 9.19 68.16 9.34L68.16 9.34L68.16 9.34Q67.48 9.50 67.09 9.77L67.09 9.77L67.09 9.77Q66.70 10.05 66.55 10.44L66.55 10.44L66.55 10.44Q66.40 10.83 66.40 11.31L66.40 11.31L66.40 16.19L65.09 16.19L65.09 5.69L66.40 5.69L66.40 9.56L66.40 9.56Q66.54 9.24 66.79 9.00L66.79 9.00L66.79 9.00Q67.05 8.77 67.38 8.61L67.38 8.61L67.38 8.61Q67.71 8.44 68.09 8.34L68.09 8.34L68.09 8.34Q68.48 8.24 68.87 8.19L68.87 8.19L68.87 8.19Q69.26 8.13 69.64 8.11L69.64 8.11L69.64 8.11Q70.02 8.09 70.34 8.09L70.34 8.09L70.34 8.09Q71.22 8.09 71.85 8.20L71.85 8.20L71.85 8.20Q72.48 8.31 72.92 8.51L72.92 8.51L72.92 8.51Q73.36 8.72 73.63 9.03L73.63 9.03L73.63 9.03Q73.90 9.34 74.04 9.74L74.04 9.74L74.04 9.74Q74.19 10.15 74.24 10.65L74.24 10.65L74.24 10.65Q74.29 11.16 74.29 11.74L74.29 11.74L74.28 16.19Z"></path></g><!----><!----></svg>